<?xml version="1.0" encoding="utf-8"?><svg fill="none" viewBox="0 0 280 120" xmlns="http://www.w3.org/2000/svg"><defs><clipPath id="cp-240-80"><rect height="80" width="240" y="0" x="0" /></clipPath><clipPath id="cp-240-87"><rect height="87" width="240" y="0" x="0" /></clipPath><clipPath id="cp-48-48"><rect height="48" width="48" y="0" x="0" /></clipPath><g id="73_b053b764-36ee-4ead-93f4-669c69f16dbc"><g transform="matrix(1.333,0,0,1.333,0,0)" id="Shape Layer 23"><g id="Group 3"><g id="Group 2"><path fill="#ffffff" fill-opacity="1" d="M26.91,18.45C26.93,17.2,27.25,15.97,27.87,14.88C28.49,13.79,29.37,12.88,30.44,12.22C29.76,11.25,28.87,10.45,27.83,9.89C26.79,9.33,25.63,9.02,24.45,8.98C21.93,8.72,19.49,10.49,18.21,10.49C16.9,10.49,14.93,9.01,12.8,9.05C11.43,9.1,10.08,9.5,8.9,10.22C7.72,10.93,6.76,11.95,6.09,13.15C3.19,18.17,5.35,25.55,8.13,29.61C9.52,31.6,11.15,33.82,13.27,33.74C15.35,33.65,16.13,32.41,18.64,32.41C21.13,32.41,21.86,33.74,24.03,33.69C26.26,33.65,27.67,31.7,29.01,29.69C30.01,28.27,30.78,26.71,31.29,25.05C29.99,24.5,28.88,23.58,28.1,22.41C27.32,21.23,26.91,19.86,26.91,18.45L26.91,18.45Z" /></g><g id="Group 1"><path fill="#ffffff" fill-opacity="1" d="M22.81,6.32C24.03,4.86,24.62,2.98,24.48,1.08C22.62,1.28,20.9,2.16,19.67,3.57C19.07,4.26,18.61,5.06,18.31,5.92C18.02,6.79,17.89,7.7,17.95,8.61C18.88,8.62,19.8,8.41,20.64,8.02C21.48,7.62,22.23,7.04,22.81,6.32L22.81,6.32Z" /></g></g></g><g id="Shape Layer 22"><rect height="48" width="48" y="24" x="24" fill="#000000" fill-opacity="0" /></g></g><g id="76_2cac73dd-af6d-432f-9e18-2ed837b3bcf2"><g id="Precomposition Layer 1"><use clip-path="url(#cp-48-48)" height="48" width="48" y="0" x="0" xlink:href="#73_b053b764-36ee-4ead-93f4-669c69f16dbc" href="#73_b053b764-36ee-4ead-93f4-669c69f16dbc" /></g></g><clipPath id="cp-83-14"><rect height="14" width="83" y="0" x="0" /></clipPath><g id="68_0fdfe190-6135-4600-985a-bf81c7432f17"><g transform="matrix(1,0,0,1,0,-2)" id="Group Layer 26" /><g transform="matrix(1,0,0,1,0,-2)" id="Group Layer 26"><g id="Group Layer 25" /></g><g transform="matrix(1,0,0,1,0,-2)" id="Group Layer 26"><g id="Shape Layer 21"><path d="M3.1,13.7L3.1,4.4L5.5,4.4C8.2,4.4,9.6,6,9.6,9L9.6,9.1C9.6,12.1,8.2,13.7,5.5,13.7L3.1,13.7Z" fill="#ffffff" fill-opacity="1" /><path d="M1.2,15.4L5.6,15.4C9.4,15.4,11.6,13,11.6,9L11.6,9C11.6,5,9.4,2.7,5.6,2.7L1.2,2.7L1.2,15.4Z" fill="#ffffff" fill-opacity="1" /></g></g><g transform="matrix(1,0,0,1,0,-2)" id="Group Layer 26"><g transform="matrix(1,0,0,1,13.077,0)" id="Group Layer 24" /></g><g transform="matrix(1,0,0,1,0,-2)" id="Group Layer 26"><g transform="matrix(1,0,0,1,13.077,0)" id="Group Layer 24"><g id="Shape Layer 20"><path d="M4.9,14C3.4,14,2.5,12.8,2.5,10.8L2.5,10.8C2.5,8.8,3.4,7.6,4.9,7.6C6.4,7.6,7.4,8.8,7.4,10.8L7.4,10.8C7.4,12.8,6.4,14,4.9,14L4.9,14Z" fill="#ffffff" fill-opacity="1" /><path d="M4.9,15.6C7.5,15.6,9.3,13.8,9.3,10.8L9.3,10.8C9.3,7.8,7.5,6,4.9,6C2.3,6,0.5,7.8,0.5,10.8L0.5,10.8C0.5,13.8,2.2,15.6,4.9,15.6L4.9,15.6Z" fill="#ffffff" fill-opacity="1" /></g></g></g><g transform="matrix(1,0,0,1,0,-2)" id="Group Layer 26"><g transform="matrix(1,0,0,1,23.624,0)" id="Group Layer 23" /></g><g transform="matrix(1,0,0,1,0,-2)" id="Group Layer 26"><g transform="matrix(1,0,0,1,23.624,0)" id="Group Layer 23"><g id="Shape Layer 19"><path d="M2.8,15.4L4.7,15.4L6.6,8.5L6.7,8.5L8.6,15.4L10.6,15.4L13.1,6.2L11.3,6.2L9.6,13.4L9.5,13.4L7.6,6.2L5.8,6.2L3.8,13.4L3.8,13.4L2.1,6.2L0.2,6.2L2.8,15.4Z" fill="#ffffff" fill-opacity="1" /></g></g></g><g transform="matrix(1,0,0,1,0,-2)" id="Group Layer 26"><g transform="matrix(1,0,0,1,37.703,0)" id="Group Layer 22" /></g><g transform="matrix(1,0,0,1,0,-2)" id="Group Layer 26"><g transform="matrix(1,0,0,1,37.703,0)" id="Group Layer 22"><g id="Shape Layer 18"><path d="M0.9,15.4L2.8,15.4L2.8,10C2.8,8.6,3.7,7.6,5,7.6C6.3,7.6,7,8.4,7,9.8L7,15.4L8.9,15.4L8.9,9.4C8.9,7.3,7.7,6,5.7,6C4.3,6,3.4,6.6,2.9,7.5L2.8,7.5L2.8,6.2L0.9,6.2L0.9,15.4Z" fill="#ffffff" fill-opacity="1" /></g></g></g><g transform="matrix(1,0,0,1,0,-2)" id="Group Layer 26"><g transform="matrix(1,0,0,1,48.223,0)" id="Group Layer 21" /></g><g transform="matrix(1,0,0,1,0,-2)" id="Group Layer 26"><g transform="matrix(1,0,0,1,48.223,0)" id="Group Layer 21"><g id="Shape Layer 17"><path d="M1,15.4L2.9,15.4L2.9,2.7L1,2.7L1,15.4Z" fill="#ffffff" fill-opacity="1" /></g></g></g><g transform="matrix(1,0,0,1,0,-2)" id="Group Layer 26"><g transform="matrix(1,0,0,1,52.863,0)" id="Group Layer 20" /></g><g transform="matrix(1,0,0,1,0,-2)" id="Group Layer 26"><g transform="matrix(1,0,0,1,52.863,0)" id="Group Layer 20"><g id="Shape Layer 16"><path d="M4.9,14C3.4,14,2.5,12.8,2.5,10.8L2.5,10.8C2.5,8.8,3.4,7.6,4.9,7.6C6.4,7.6,7.4,8.8,7.4,10.8L7.4,10.8C7.4,12.8,6.4,14,4.9,14L4.9,14Z" fill="#ffffff" fill-opacity="1" /><path d="M4.9,15.6C7.5,15.6,9.3,13.8,9.3,10.8L9.3,10.8C9.3,7.8,7.5,6,4.9,6C2.3,6,0.5,7.8,0.5,10.8L0.5,10.8C0.5,13.8,2.2,15.6,4.9,15.6L4.9,15.6Z" fill="#ffffff" fill-opacity="1" /></g></g></g><g transform="matrix(1,0,0,1,0,-2)" id="Group Layer 26"><g transform="matrix(1,0,0,1,63.409,0)" id="Group Layer 19" /></g><g transform="matrix(1,0,0,1,0,-2)" id="Group Layer 26"><g transform="matrix(1,0,0,1,63.409,0)" id="Group Layer 19"><g id="Shape Layer 15"><path d="M2.5,12.7L2.5,12.7C2.5,11.9,3.2,11.5,4.3,11.4L6.5,11.2L6.5,11.9C6.5,13.1,5.5,14,4.2,14C3.2,14,2.5,13.5,2.5,12.7L2.5,12.7Z" fill="#ffffff" fill-opacity="1" /><path d="M3.7,15.6C4.9,15.6,6,14.9,6.5,13.9L6.5,13.9L6.5,15.4L8.4,15.4L8.4,9C8.4,7.1,7,6,4.7,6C2.4,6,1,7.2,0.9,8.8L0.9,8.9L2.7,8.9L2.8,8.8C3,8.1,3.6,7.5,4.7,7.5C5.9,7.5,6.5,8.2,6.5,9.2L6.5,9.9L4,10C1.8,10.1,0.6,11.2,0.6,12.8L0.6,12.8C0.6,14.5,1.9,15.6,3.7,15.6L3.7,15.6Z" fill="#ffffff" fill-opacity="1" /></g></g></g><g transform="matrix(1,0,0,1,0,-2)" id="Group Layer 26"><g transform="matrix(1,0,0,1,73.454,0)" id="Group Layer 18" /></g><g transform="matrix(1,0,0,1,0,-2)" id="Group Layer 26"><g transform="matrix(1,0,0,1,73.454,0)" id="Group Layer 18"><g id="Shape Layer 14"><path d="M4.9,13.9C3.4,13.9,2.5,12.8,2.5,10.8L2.5,10.8C2.5,8.8,3.4,7.6,4.9,7.6C6.3,7.6,7.3,8.9,7.3,10.8L7.3,10.8C7.3,12.7,6.3,13.9,4.9,13.9L4.9,13.9Z" fill="#ffffff" fill-opacity="1" /><path d="M4.4,15.6C5.7,15.6,6.7,14.9,7.3,13.8L7.3,13.8L7.3,15.4L9.2,15.4L9.2,2.7L7.3,2.7L7.3,7.7L7.3,7.7C6.7,6.6,5.7,6,4.4,6C2.1,6,0.5,7.9,0.5,10.8L0.5,10.8C0.5,13.7,2,15.6,4.4,15.6L4.4,15.6Z" fill="#ffffff" fill-opacity="1" /></g></g></g></g><clipPath id="cp-20-11"><rect height="11" width="20" y="0" x="0" /></clipPath><g id="48_3f94e09f-bad8-4b51-8c0c-1b3fac5f52ab"><g transform="matrix(1,0,0,1,0,-5)" id="Group Layer 17" /><g transform="matrix(1,0,0,1,0,-5)" id="Group Layer 17"><g id="Group Layer 16" /></g><g transform="matrix(1,0,0,1,0,-5)" id="Group Layer 17"><g id="Shape Layer 13"><path d="M4.9,14C3.4,14,2.5,12.8,2.5,10.8L2.5,10.8C2.5,8.8,3.4,7.6,4.9,7.6C6.4,7.6,7.4,8.8,7.4,10.8L7.4,10.8C7.4,12.8,6.4,14,4.9,14L4.9,14Z" fill="#ffffff" fill-opacity="1" /><path d="M4.9,15.6C7.5,15.6,9.3,13.8,9.3,10.8L9.3,10.8C9.3,7.8,7.5,6,4.9,6C2.3,6,0.5,7.8,0.5,10.8L0.5,10.8C0.5,13.8,2.2,15.6,4.9,15.6L4.9,15.6Z" fill="#ffffff" fill-opacity="1" /></g></g><g transform="matrix(1,0,0,1,0,-5)" id="Group Layer 17"><g transform="matrix(1,0,0,1,10.546,0)" id="Group Layer 15" /></g><g transform="matrix(1,0,0,1,0,-5)" id="Group Layer 17"><g transform="matrix(1,0,0,1,10.546,0)" id="Group Layer 15"><g id="Shape Layer 12"><path d="M0.9,15.4L2.8,15.4L2.8,10C2.8,8.6,3.7,7.6,5,7.6C6.3,7.6,7,8.4,7,9.8L7,15.4L8.9,15.4L8.9,9.4C8.9,7.3,7.7,6,5.7,6C4.3,6,3.4,6.6,2.9,7.5L2.8,7.5L2.8,6.2L0.9,6.2L0.9,15.4Z" fill="#ffffff" fill-opacity="1" /></g></g></g></g><clipPath id="cp-27-14"><rect height="14" width="27" y="0" x="0" /></clipPath><g id="40_23644613-733d-4c7b-ba0b-b7e6ae91804a"><g transform="matrix(1,0,0,1,0,-2)" id="Group Layer 14" /><g transform="matrix(1,0,0,1,0,-2)" id="Group Layer 14"><g id="Group Layer 13" /></g><g transform="matrix(1,0,0,1,0,-2)" id="Group Layer 14"><g id="Shape Layer 11"><path d="M4.2,15.6C4.6,15.6,5,15.5,5.2,15.5L5.2,14C5.1,14,4.8,14.1,4.6,14.1C3.8,14.1,3.4,13.7,3.4,12.8L3.4,7.7L5.2,7.7L5.2,6.2L3.4,6.2L3.4,3.7L1.5,3.7L1.5,6.2L0.1,6.2L0.1,7.7L1.5,7.7L1.5,13C1.5,14.8,2.4,15.6,4.2,15.6L4.2,15.6Z" fill="#ffffff" fill-opacity="1" /></g></g><g transform="matrix(1,0,0,1,0,-2)" id="Group Layer 14"><g transform="matrix(1,0,0,1,6.494,0)" id="Group Layer 12" /></g><g transform="matrix(1,0,0,1,0,-2)" id="Group Layer 14"><g transform="matrix(1,0,0,1,6.494,0)" id="Group Layer 12"><g id="Shape Layer 10"><path d="M1,15.4L2.9,15.4L2.9,10C2.9,8.6,3.8,7.6,5.1,7.6C6.4,7.6,7.2,8.5,7.2,10L7.2,15.4L9.1,15.4L9.1,9.7C9.1,7.5,7.8,6,5.8,6C4.4,6,3.5,6.6,3,7.7L2.9,7.7L2.9,2.7L1,2.7L1,15.4Z" fill="#ffffff" fill-opacity="1" /></g></g></g><g transform="matrix(1,0,0,1,0,-2)" id="Group Layer 14"><g transform="matrix(1,0,0,1,17.208,0)" id="Group Layer 11" /></g><g transform="matrix(1,0,0,1,0,-2)" id="Group Layer 14"><g transform="matrix(1,0,0,1,17.208,0)" id="Group Layer 11"><g id="Shape Layer 9"><path d="M4.8,7.5C6,7.5,6.9,8.3,7.1,9.9L2.5,9.9C2.7,8.4,3.6,7.5,4.8,7.5L4.8,7.5Z" fill="#ffffff" fill-opacity="1" /><path d="M4.9,15.6C7.1,15.6,8.6,14.3,8.9,12.8L8.9,12.7L7.1,12.7L7,12.8C6.8,13.5,6,14,4.9,14C3.4,14,2.4,13,2.4,11.3L9,11.3L9,10.6C9,7.8,7.4,6,4.8,6C2.2,6,0.5,7.9,0.5,10.8L0.5,10.8C0.5,13.7,2.2,15.6,4.9,15.6L4.9,15.6Z" fill="#ffffff" fill-opacity="1" /></g></g></g></g><clipPath id="cp-63-32"><rect height="32" width="63" y="0" x="0" /></clipPath><g id="28_a677a5e1-3ae6-424e-95ae-21501cc96b0b"><g transform="matrix(1,0,0,1,0,-5)" id="Group Layer 10" /><g transform="matrix(1,0,0,1,0,-5)" id="Group Layer 10"><g id="Group Layer 9" /></g><g transform="matrix(1,0,0,1,0,-5)" id="Group Layer 10"><g id="Shape Layer 8"><path d="M11.8,9.6L11.8,9.6L15.6,20.8L8,20.8L11.8,9.6Z" fill="#ffffff" fill-opacity="1" /><path d="M0.5,30.8L4.6,30.8L6.9,23.9L16.7,23.9L19,30.8L23.2,30.8L13.9,5.4L9.7,5.4L0.5,30.8Z" fill="#ffffff" fill-opacity="1" /></g></g><g transform="matrix(1,0,0,1,0,-5)" id="Group Layer 10"><g transform="matrix(1,0,0,1,23.247,0)" id="Group Layer 8" /></g><g transform="matrix(1,0,0,1,0,-5)" id="Group Layer 10"><g transform="matrix(1,0,0,1,23.247,0)" id="Group Layer 8"><g id="Shape Layer 7"><path d="M10.6,27.9C7.7,27.9,5.7,25.4,5.7,21.6L5.7,21.6C5.7,17.8,7.7,15.2,10.6,15.2C13.6,15.2,15.4,17.7,15.4,21.6L15.4,21.6C15.4,25.5,13.6,27.9,10.6,27.9L10.6,27.9Z" fill="#ffffff" fill-opacity="1" /><path d="M1.9,36.9L5.7,36.9L5.7,27.7L5.8,27.7C6.9,29.8,9,31.2,11.6,31.2C16.2,31.2,19.3,27.5,19.3,21.6L19.3,21.6C19.3,15.7,16.2,12,11.5,12C8.9,12,6.9,13.3,5.8,15.5L5.7,15.5L5.7,12.3L1.9,12.3L1.9,36.9Z" fill="#ffffff" fill-opacity="1" /></g></g></g><g transform="matrix(1,0,0,1,0,-5)" id="Group Layer 10"><g transform="matrix(1,0,0,1,43.225,0)" id="Group Layer 7" /></g><g transform="matrix(1,0,0,1,0,-5)" id="Group Layer 10"><g transform="matrix(1,0,0,1,43.225,0)" id="Group Layer 7"><g id="Shape Layer 6"><path d="M10.6,27.9C7.7,27.9,5.7,25.4,5.7,21.6L5.7,21.6C5.7,17.8,7.7,15.2,10.6,15.2C13.6,15.2,15.4,17.7,15.4,21.6L15.4,21.6C15.4,25.5,13.6,27.9,10.6,27.9L10.6,27.9Z" fill="#ffffff" fill-opacity="1" /><path d="M1.9,36.9L5.7,36.9L5.7,27.7L5.8,27.7C6.9,29.8,9,31.2,11.6,31.2C16.2,31.2,19.3,27.5,19.3,21.6L19.3,21.6C19.3,15.7,16.2,12,11.5,12C8.9,12,6.9,13.3,5.8,15.5L5.7,15.5L5.7,12.3L1.9,12.3L1.9,36.9Z" fill="#ffffff" fill-opacity="1" /></g></g></g></g><clipPath id="cp-82-27"><rect height="27" width="82" y="0" x="0" /></clipPath><g id="18_96571d83-4f07-4124-ab09-025ec24a0f29"><g transform="matrix(1,0,0,1,0,-5)" id="Group Layer 6" /><g transform="matrix(1,0,0,1,0,-5)" id="Group Layer 6"><g id="Group Layer 5" /></g><g transform="matrix(1,0,0,1,0,-5)" id="Group Layer 6"><g id="Shape Layer 5"><path d="M11,31.2C17,31.2,20.7,28.3,20.7,23.7L20.7,23.6C20.7,19.7,18.4,17.6,13.2,16.5L10.4,15.9C7.2,15.2,5.8,14.1,5.8,12.2L5.8,12.1C5.8,9.9,7.8,8.4,10.9,8.4C13.9,8.4,15.9,9.8,16.3,12.2L16.3,12.4L20.2,12.4L20.2,12.1C19.9,7.8,16.3,5,11,5C5.6,5,1.8,8,1.8,12.3L1.8,12.3C1.8,16.1,4.2,18.3,9.2,19.4L11.9,20C15.3,20.7,16.7,21.9,16.7,23.9L16.7,23.9C16.7,26.3,14.5,27.8,11.1,27.8C7.7,27.8,5.5,26.3,5.1,24L5,23.8L1.2,23.8L1.2,24C1.5,28.5,5.3,31.2,11,31.2L11,31.2Z" fill="#ffffff" fill-opacity="1" /></g></g><g transform="matrix(1,0,0,1,0,-5)" id="Group Layer 6"><g transform="matrix(1,0,0,1,21.49,0)" id="Group Layer 4" /></g><g transform="matrix(1,0,0,1,0,-5)" id="Group Layer 6"><g transform="matrix(1,0,0,1,21.49,0)" id="Group Layer 4"><g id="Shape Layer 4"><path d="M8.4,31.2C9.2,31.2,9.9,31.1,10.3,31L10.3,28.1C10,28.1,9.7,28.1,9.3,28.1C7.7,28.1,6.8,27.6,6.8,25.7L6.8,15.3L10.3,15.3L10.3,12.3L6.8,12.3L6.8,7.5L3,7.5L3,12.3L0.3,12.3L0.3,15.3L3,15.3L3,25.9C3,29.6,4.7,31.2,8.4,31.2L8.4,31.2Z" fill="#ffffff" fill-opacity="1" /></g></g></g><g transform="matrix(1,0,0,1,0,-5)" id="Group Layer 6"><g transform="matrix(1,0,0,1,32.678,0)" id="Group Layer 3" /></g><g transform="matrix(1,0,0,1,0,-5)" id="Group Layer 6"><g transform="matrix(1,0,0,1,32.678,0)" id="Group Layer 3"><g id="Shape Layer 3"><path d="M9.8,28C6.8,28,4.9,25.7,4.9,21.6L4.9,21.5C4.9,17.5,6.9,15.1,9.8,15.1C12.8,15.1,14.7,17.5,14.7,21.5L14.7,21.6C14.7,25.7,12.8,28,9.8,28L9.8,28Z" fill="#ffffff" fill-opacity="1" /><path d="M9.8,31.2C15.1,31.2,18.6,27.6,18.6,21.6L18.6,21.5C18.6,15.6,15.1,12,9.8,12C4.5,12,1.1,15.6,1.1,21.5L1.1,21.6C1.1,27.5,4.5,31.2,9.8,31.2L9.8,31.2Z" fill="#ffffff" fill-opacity="1" /></g></g></g><g transform="matrix(1,0,0,1,0,-5)" id="Group Layer 6"><g transform="matrix(1,0,0,1,51.971,0)" id="Group Layer 2" /></g><g transform="matrix(1,0,0,1,0,-5)" id="Group Layer 6"><g transform="matrix(1,0,0,1,51.971,0)" id="Group Layer 2"><g id="Shape Layer 2"><path d="M1.9,30.8L5.7,30.8L5.7,19.8C5.7,17,7.2,15.4,9.6,15.4C10.3,15.4,11,15.5,11.3,15.6L11.3,12.1C11,12,10.5,12,10,12C7.9,12,6.4,13.3,5.8,15.5L5.7,15.5L5.7,12.3L1.9,12.3L1.9,30.8Z" fill="#ffffff" fill-opacity="1" /></g></g></g><g transform="matrix(1,0,0,1,0,-5)" id="Group Layer 6"><g transform="matrix(1,0,0,1,63.423,0)" id="Group Layer 1" /></g><g transform="matrix(1,0,0,1,0,-5)" id="Group Layer 6"><g transform="matrix(1,0,0,1,63.423,0)" id="Group Layer 1"><g id="Shape Layer 1"><path d="M9.6,15.1C12.1,15.1,13.9,16.6,14.2,19.8L4.9,19.8C5.2,16.7,7.1,15.1,9.6,15.1L9.6,15.1Z" fill="#ffffff" fill-opacity="1" /><path d="M9.8,31.2C14.3,31.2,17.1,28.5,17.7,25.6L17.7,25.4L14.1,25.4L14.1,25.5C13.6,26.9,12.2,28.1,9.9,28.1C6.9,28.1,5,26,4.9,22.5L17.9,22.5L17.9,21.2C17.9,15.6,14.8,12,9.6,12C4.4,12,1.1,15.8,1.1,21.6L1.1,21.6C1.1,27.4,4.4,31.2,9.8,31.2L9.8,31.2Z" fill="#ffffff" fill-opacity="1" /></g></g></g></g><g id="80_2acdd27b-d0b3-4b92-a625-20690659c7c9"><g id="Shape Layer 24"><rect ry="12" rx="12" height="80" width="240" y="40" x="120" fill="#000000" fill-opacity="1" /></g><g transform="matrix(1,0,0,1,16,16)" id="Group Layer 31" /><g transform="matrix(1,0,0,1,16,16)" id="Group Layer 31"><g opacity="0" id="Precomposition Layer 7"><animate repeatCount="indefinite" attributeName="opacity" dur="3s" begin="0s" calcMode="spline" values="0; 0; 1; 1" keyTimes="0; 0.033; 0.133; 1" keySplines="0 0 1 1; 0.333 0.999 0.666 1; 0 0 1 1" fill="freeze" /><g transform="translate(24,24)"><g transform="scale(0.5,0.5)"><animateTransform repeatCount="indefinite" type="scale" attributeName="transform" dur="3s" begin="0s" calcMode="spline" values="0.5 0.5; 0.5 0.5; 1 1; 1 1" keyTimes="0; 0.033; 0.133; 1" keySplines="0 0 1 1; 0.333 0.999 0.666 1; 0 0 1 1" fill="freeze" /><g transform="translate(-24,-24)"><use clip-path="url(#cp-48-48)" height="48" width="48" y="0" x="0" xlink:href="#76_2cac73dd-af6d-432f-9e18-2ed837b3bcf2" href="#76_2cac73dd-af6d-432f-9e18-2ed837b3bcf2" /></g></g></g></g></g><g transform="matrix(1,0,0,1,70,14)" id="Group Layer 30" /><g transform="matrix(1,0,0,1,70,14)" id="Group Layer 30"><g id="Group Layer 29" /></g><g transform="matrix(1,0,0,1,70,14)" id="Group Layer 30"><g opacity="0" id="Precomposition Layer 6"><animate repeatCount="indefinite" attributeName="opacity" dur="3s" begin="0s" calcMode="spline" values="0; 0; 1; 1" keyTimes="0; 0.067; 0.141; 1" keySplines="0 0 1 1; 0 0 1 1; 0 0 1 1" fill="freeze" /><g transform="translate(0,9)"><animateTransform repeatCount="indefinite" type="translate" attributeName="transform" dur="3s" begin="0s" calcMode="spline" values="0 9; 0 9; 0 0; 0 0" keyTimes="0; 0.067; 0.141; 1" keySplines="0 0 1 1; 0.25 0.1 0.25 1; 0 0 1 1" fill="freeze" /><g transform="translate(0,2)"><use clip-path="url(#cp-83-14)" height="14" width="83" y="0" x="0" xlink:href="#68_0fdfe190-6135-4600-985a-bf81c7432f17" href="#68_0fdfe190-6135-4600-985a-bf81c7432f17" /></g></g></g></g><g transform="matrix(1,0,0,1,70,14)" id="Group Layer 30"><g opacity="0" id="Precomposition Layer 5"><animate repeatCount="indefinite" attributeName="opacity" dur="3s" begin="0s" calcMode="spline" values="0; 0; 1; 1" keyTimes="0; 0.084; 0.181; 1" keySplines="0 0 1 1; 0 0 1 1; 0 0 1 1" fill="freeze" /><g transform="translate(88.781,9)"><animateTransform repeatCount="indefinite" type="translate" attributeName="transform" dur="3s" begin="0s" calcMode="spline" values="88.781 9; 88.781 9; 88.781 0; 88.781 0" keyTimes="0; 0.085; 0.181; 1" keySplines="0 0 1 1; 0.25 0.1 0.25 1; 0 0 1 1" fill="freeze" /><g transform="translate(0,5)"><use clip-path="url(#cp-20-11)" height="11" width="20" y="0" x="0" xlink:href="#48_3f94e09f-bad8-4b51-8c0c-1b3fac5f52ab" href="#48_3f94e09f-bad8-4b51-8c0c-1b3fac5f52ab" /></g></g></g></g><g transform="matrix(1,0,0,1,70,14)" id="Group Layer 30"><g opacity="0" id="Precomposition Layer 4"><animate repeatCount="indefinite" attributeName="opacity" dur="3s" begin="0s" calcMode="spline" values="0; 0; 1; 1" keyTimes="0; 0.105; 0.333; 1" keySplines="0 0 1 1; 0 0 1 1; 0 0 1 1" fill="freeze" /><g transform="translate(114.214,9)"><animateTransform repeatCount="indefinite" type="translate" attributeName="transform" dur="3s" begin="0s" calcMode="spline" values="114.214 9; 114.214 9; 114.214 0; 114.214 0" keyTimes="0; 0.105; 0.333; 1" keySplines="0 0 1 1; 0.25 0.1 0.25 1; 0 0 1 1" fill="freeze" /><g transform="translate(0,2)"><use clip-path="url(#cp-27-14)" height="14" width="27" y="0" x="0" xlink:href="#40_23644613-733d-4c7b-ba0b-b7e6ae91804a" href="#40_23644613-733d-4c7b-ba0b-b7e6ae91804a" /></g></g></g></g><g transform="matrix(1,0,0,1,68,32)" id="Group Layer 28" /><g transform="matrix(1,0,0,1,68,32)" id="Group Layer 28"><g id="Group Layer 27" /></g><g transform="matrix(1,0,0,1,68,32)" id="Group Layer 28"><g opacity="0" id="Precomposition Layer 3"><animate repeatCount="indefinite" attributeName="opacity" dur="3s" begin="0s" calcMode="spline" values="0; 0; 1; 1" keyTimes="0; 0.067; 0.15; 1" keySplines="0 0 1 1; 0 0 1 1; 0 0 1 1" fill="freeze" /><g transform="translate(0,18)"><animateTransform repeatCount="indefinite" type="translate" attributeName="transform" dur="3s" begin="0s" calcMode="spline" values="0 18; 0 18; 0 0; 0 0" keyTimes="0; 0.067; 0.15; 1" keySplines="0 0 1 1; 0.25 0.1 0.25 1; 0 0 1 1" fill="freeze" /><g transform="translate(0,5)"><use clip-path="url(#cp-63-32)" height="32" width="63" y="0" x="0" xlink:href="#28_a677a5e1-3ae6-424e-95ae-21501cc96b0b" href="#28_a677a5e1-3ae6-424e-95ae-21501cc96b0b" /></g></g></g></g><g transform="matrix(1,0,0,1,68,32)" id="Group Layer 28"><g opacity="0" id="Precomposition Layer 2"><animate repeatCount="indefinite" attributeName="opacity" dur="3s" begin="0s" calcMode="spline" values="0; 0; 1; 1" keyTimes="0; 0.085; 0.283; 1" keySplines="0 0 1 1; 0 0 1 1; 0 0 1 1" fill="freeze" /><g transform="translate(70.138,18)"><animateTransform repeatCount="indefinite" type="translate" attributeName="transform" dur="3s" begin="0s" calcMode="spline" values="70.138 18; 70.138 18; 70.138 0; 70.138 0" keyTimes="0; 0.085; 0.283; 1" keySplines="0 0 1 1; 0.25 0.1 0.25 1; 0 0 1 1" fill="freeze" /><g transform="translate(0,5)"><use clip-path="url(#cp-82-27)" height="27" width="82" y="0" x="0" xlink:href="#18_96571d83-4f07-4124-ab09-025ec24a0f29" href="#18_96571d83-4f07-4124-ab09-025ec24a0f29" /></g></g></g></g></g><g id="84_3da01a90-dad8-4c46-b946-9a663abb7489"><g id="Precomposition Layer 8"><use clip-path="url(#cp-240-87)" height="87" width="240" y="0" x="0" xlink:href="#80_2acdd27b-d0b3-4b92-a625-20690659c7c9" href="#80_2acdd27b-d0b3-4b92-a625-20690659c7c9" /></g><g id="Shape Layer 27"><rect ry="12" rx="12" height="80" width="240" y="40" x="120" fill="#000000" fill-opacity="1" /></g><g id="Shape Layer 26"><g id="Group 5"><rect ry="12" rx="12" height="80" width="240" y="40" x="120" stroke-linejoin="miter" stroke-linecap="butt" stroke-width="4" stroke-opacity="1" stroke="#a6a6a6" /></g><g id="Group 4"><rect height="84" width="244" y="40" x="120" fill="#000000" fill-opacity="0" /></g></g><g id="Shape Layer 25"><rect ry="12" rx="12" height="80" width="240" y="40" x="120" fill="#000000" fill-opacity="1" /></g></g><g id="87_7cd236a1-02ef-44f8-b8e8-b65fe98fb790"><g opacity="0" id="Precomposition Layer 9"><animate repeatCount="indefinite" attributeName="opacity" dur="3s" begin="0s" calcMode="spline" values="0; 1; 1" keyTimes="0; 0.133; 1" keySplines="0.333 0.999 0.666 1; 0 0 1 1" fill="freeze" /><g transform="translate(120,40)"><g transform="scale(0.8,0.8)"><animateTransform repeatCount="indefinite" type="scale" attributeName="transform" dur="3s" begin="0s" calcMode="spline" values="0.8 0.8; 1 1; 1 1" keyTimes="0; 0.133; 1" keySplines="0.333 0.999 0.666 1; 0 0 1 1" fill="freeze" /><g transform="translate(-120,-40)"><use clip-path="url(#cp-240-80)" height="80" width="240" y="0" x="0" xlink:href="#84_3da01a90-dad8-4c46-b946-9a663abb7489" href="#84_3da01a90-dad8-4c46-b946-9a663abb7489" /></g></g></g></g></g></defs><g id="Group Layer 34" /><g id="Group Layer 33" /><g transform="matrix(1,0,0,1,20,20)" id="Group Layer 32" /><g transform="matrix(1,0,0,1,20,20)" id="Group Layer 32"><g opacity="1" id="Precomposition Layer 10"><animate repeatCount="indefinite" attributeName="opacity" dur="3s" begin="0s" calcMode="spline" values="1; 1; 0; 0" keyTimes="0; 0.867; 0.933; 1" keySplines="0 0 1 1; 0.334 0 0.667 0.001; 0 0 1 1" fill="freeze" /><g transform="translate(120,40)"><g transform="scale(1,1)"><animateTransform repeatCount="indefinite" type="scale" attributeName="transform" dur="3s" begin="0s" calcMode="spline" values="1 1; 1 1; 0.8 0.8; 0.8 0.8" keyTimes="0; 0.867; 0.933; 1" keySplines="0 0 1 1; 0.334 0 0.667 0.001; 0 0 1 1" fill="freeze" /><g transform="translate(-120,-40)"><use clip-path="url(#cp-240-80)" height="80" width="240" y="0" x="0" xlink:href="#87_7cd236a1-02ef-44f8-b8e8-b65fe98fb790" href="#87_7cd236a1-02ef-44f8-b8e8-b65fe98fb790" /></g></g></g></g></g></svg>