<?xml version="1.0" encoding="utf-8"?><svg fill="none" viewBox="0 0 310 120" xmlns="http://www.w3.org/2000/svg"><defs><clipPath id="cp-270-86"><rect height="86" width="270" y="0" x="0" /></clipPath><clipPath id="cp-79-14"><rect height="14" width="79" y="0" x="0" /></clipPath><g id="27_397fc61d-4156-46fb-902a-f565c3efa50e"><g transform="matrix(0.5,0,0,0.5,0,0)" id="Group Layer 3" /><g transform="matrix(0.5,0,0,0.5,0,0)" id="Group Layer 3"><g id="Image Layer 3" /></g></g><g id="30_b601e959-4052-4cce-ba0c-8e7b1a559cfe"><g id="Precomposition Layer 3"><use clip-path="url(#cp-79-14)" height="14" width="79" y="0" x="0" xlink:href="#27_397fc61d-4156-46fb-902a-f565c3efa50e" href="#27_397fc61d-4156-46fb-902a-f565c3efa50e" /></g></g><clipPath id="cp-170-36"><rect height="36" width="170" y="0" x="0" /></clipPath><g id="18_c12e6632-2433-4c7c-8c53-4c5b98fd3b2b"><g transform="matrix(0.5,0,0,0.5,0,0)" id="Group Layer 2" /><g transform="matrix(0.5,0,0,0.5,0,0)" id="Group Layer 2"><g id="Image Layer 2" /></g></g><g id="21_31b271fd-4cdd-4b7e-8e62-31054ff8faa2"><g id="Precomposition Layer 2"><use clip-path="url(#cp-170-36)" height="36" width="170" y="0" x="0" xlink:href="#18_c12e6632-2433-4c7c-8c53-4c5b98fd3b2b" href="#18_c12e6632-2433-4c7c-8c53-4c5b98fd3b2b" /></g></g><clipPath id="cp-64-65"><rect height="65" width="64" y="0" x="0" /></clipPath><g id="9_22377e2c-7b4a-44f8-912d-ae8ad1e29f6b"><g transform="matrix(0.5,0,0,0.5,0,0)" id="Group Layer 1" /><g transform="matrix(0.5,0,0,0.5,0,0)" id="Group Layer 1"><g id="Image Layer 1" /></g></g><g id="12_908a8a05-8cf7-45cd-962d-8328d02d1dc3"><g id="Precomposition Layer 1"><use clip-path="url(#cp-64-65)" height="65" width="64" y="0" x="0" xlink:href="#9_22377e2c-7b4a-44f8-912d-ae8ad1e29f6b" href="#9_22377e2c-7b4a-44f8-912d-ae8ad1e29f6b" /></g></g><g id="36_1ddc8556-e264-4e74-adbe-e51c4fd50368"><g id="Shape Layer 3"><rect ry="12" rx="12" height="80" width="270" y="40" x="135" fill="#000000" fill-opacity="1" /></g><g id="Shape Layer 2"><g id="Group 2"><rect ry="12" rx="12" height="80" width="270" y="40" x="135" stroke-linejoin="miter" stroke-linecap="butt" stroke-width="4" stroke-opacity="1" stroke="#a6a6a6" /></g><g id="Group 1"><rect height="84" width="274" y="40" x="135" fill="#000000" fill-opacity="0" /></g></g><g id="Shape Layer 1"><rect ry="12" rx="12" height="80" width="270" y="40" x="135" fill="#000000" fill-opacity="1" /></g><g transform="matrix(1,0,0,1,82,13)" id="Group Layer 6" /><g transform="matrix(1,0,0,1,82,13)" id="Group Layer 6"><g opacity="0" id="Precomposition Layer 6"><animate repeatCount="indefinite" attributeName="opacity" dur="3s" begin="0s" calcMode="spline" values="0; 0; 1; 1" keyTimes="0; 0.067; 0.167; 1" keySplines="0 0 1 1; 0 0 1 1; 0 0 1 1" fill="freeze" /><g transform="translate(0,8)"><animateTransform repeatCount="indefinite" type="translate" attributeName="transform" dur="3s" begin="0s" calcMode="spline" values="0 8; 0 8; 0 0; 0 0" keyTimes="0; 0.067; 0.167; 1" keySplines="0 0 1 1; 0.333 0.999 0.666 1; 0 0 1 1" fill="freeze" /><use clip-path="url(#cp-79-14)" height="14" width="79" y="0" x="0" xlink:href="#30_b601e959-4052-4cce-ba0c-8e7b1a559cfe" href="#30_b601e959-4052-4cce-ba0c-8e7b1a559cfe" /></g></g></g><g transform="matrix(1,0,0,1,82,34)" id="Group Layer 5" /><g transform="matrix(1,0,0,1,82,34)" id="Group Layer 5"><g opacity="0" id="Precomposition Layer 5"><animate repeatCount="indefinite" attributeName="opacity" dur="3s" begin="0s" calcMode="spline" values="0; 0; 1; 1" keyTimes="0; 0.083; 0.183; 1" keySplines="0 0 1 1; 0 0 1 1; 0 0 1 1" fill="freeze" /><g transform="translate(0,16)"><animateTransform repeatCount="indefinite" type="translate" attributeName="transform" dur="3s" begin="0s" calcMode="spline" values="0 16; 0 16; 0 0; 0 0" keyTimes="0; 0.083; 0.183; 1" keySplines="0 0 1 1; 0.333 0.999 0.666 1; 0 0 1 1" fill="freeze" /><use clip-path="url(#cp-170-36)" height="36" width="170" y="0" x="0" xlink:href="#21_31b271fd-4cdd-4b7e-8e62-31054ff8faa2" href="#21_31b271fd-4cdd-4b7e-8e62-31054ff8faa2" /></g></g></g><g transform="matrix(1,0,0,1,8,8)" id="Group Layer 4" /><g transform="matrix(1,0,0,1,8,8)" id="Group Layer 4"><g opacity="0" id="Precomposition Layer 4"><animate repeatCount="indefinite" attributeName="opacity" dur="3s" begin="0s" calcMode="spline" values="0; 0; 1; 1" keyTimes="0; 0.033; 0.167; 1" keySplines="0 0 1 1; 0.333 0.999 0.666 1; 0 0 1 1" fill="freeze" /><g transform="translate(32,32.5)"><g transform="scale(0.5,0.5)"><animateTransform repeatCount="indefinite" type="scale" attributeName="transform" dur="3s" begin="0s" calcMode="spline" values="0.5 0.5; 0.5 0.5; 1 1; 1 1" keyTimes="0; 0.033; 0.167; 1" keySplines="0 0 1 1; 0.333 0.999 0.666 1; 0 0 1 1" fill="freeze" /><g transform="translate(-32,-32.5)"><use clip-path="url(#cp-64-65)" height="65" width="64" y="0" x="0" xlink:href="#12_908a8a05-8cf7-45cd-962d-8328d02d1dc3" href="#12_908a8a05-8cf7-45cd-962d-8328d02d1dc3" /></g></g></g></g></g></g><g id="39_d9f55a61-281d-4d5c-b839-9c622ae92da3"><g opacity="0" id="Precomposition Layer 7"><animate repeatCount="indefinite" attributeName="opacity" dur="3s" begin="0s" calcMode="spline" values="0; 1; 1" keyTimes="0; 0.1; 1" keySplines="0.333 0.999 0.666 1; 0 0 1 1" fill="freeze" /><g transform="translate(135,40)"><g transform="scale(0.8,0.8)"><animateTransform repeatCount="indefinite" type="scale" attributeName="transform" dur="3s" begin="0s" calcMode="spline" values="0.8 0.8; 1 1; 1 1" keyTimes="0; 0.1; 1" keySplines="0.333 0.999 0.666 1; 0 0 1 1" fill="freeze" /><g transform="translate(-135,-40)"><use clip-path="url(#cp-270-86)" height="86" width="270" y="0" x="0" xlink:href="#36_1ddc8556-e264-4e74-adbe-e51c4fd50368" href="#36_1ddc8556-e264-4e74-adbe-e51c4fd50368" /></g></g></g></g></g></defs><g id="Group Layer 9" /><g id="Group Layer 8" /><g transform="matrix(1,0,0,1,20,20)" id="Group Layer 7" /><g transform="matrix(1,0,0,1,20,20)" id="Group Layer 7"><g opacity="1" id="Precomposition Layer 8"><animate repeatCount="indefinite" attributeName="opacity" dur="3s" begin="0s" calcMode="spline" values="1; 1; 0; 0" keyTimes="0; 0.867; 0.933; 1" keySplines="0 0 1 1; 0.334 0 0.667 0.001; 0 0 1 1" fill="freeze" /><g transform="translate(135,40)"><g transform="scale(1,1)"><animateTransform repeatCount="indefinite" type="scale" attributeName="transform" dur="3s" begin="0s" calcMode="spline" values="1 1; 1 1; 0.8 0.8; 0.8 0.8" keyTimes="0; 0.867; 0.933; 1" keySplines="0 0 1 1; 0.334 0 0.667 0.001; 0 0 1 1" fill="freeze" /><g transform="translate(-135,-40)"><use clip-path="url(#cp-270-86)" height="86" width="270" y="0" x="0" xlink:href="#39_d9f55a61-281d-4d5c-b839-9c622ae92da3" href="#39_d9f55a61-281d-4d5c-b839-9c622ae92da3" /></g></g></g></g></g></svg>